<svg width="128" height="128" viewBox="0 0 128 128" xmlns="http://www.w3.org/2000/svg">
    <!-- Main Body - Flat Yellow -->
    <path d="M15,64 C15,35 60,10 95,30 C120,40 120,80 95,98 C60,118 15,90 15,64 Z" fill="#FFD700"/>

    <!-- Dorsal Fin - Yellow with Black Edge -->
    <path d="M45,30 C50,15 70,10 80,25 L75,30 L45,30 Z" fill="#FFD700"/>
    <path d="M45,30 C50,15 70,10 80,25" stroke="#000000" stroke-width="2" fill="none"/>

    <!-- Anal Fin - Yellow with Black Edge -->
    <path d="M45,98 C50,113 70,118 80,103 L75,98 L45,98 Z" fill="#FFD700"/>
    <path d="M45,98 C50,113 70,118 80,103" stroke="#000000" stroke-width="2" fill="none"/>

    <!-- Tail Fin - Yellow with Black Edge -->
    <path d="M110,64 C115,50 125,55 120,64 C125,73 115,78 110,64 Z" fill="#FFD700"/>
    <path d="M110,64 C115,50 M125,55 L120,64 M125,55 L120,64 C125,73 M115,78 L110,64" stroke="#000000" stroke-width="2" fill="none"/>


    <!-- Eye Stripe - Black -->
    <path d="M40,50 C45,40 60,40 65,50 L60,75 C55,85 40,85 35,75 L40,50 Z" fill="#000000"/>

    <!-- Eye - White -->
    <circle cx="50" cy="62" r="10" fill="#FFFFFF"/>

    <!-- Pupil - Black -->
    <circle cx="55" cy="64" r="5" fill="#000000"/>

    <!-- Eye Highlight 1 -->
    <circle cx="57" cy="60" r="1.5" fill="#FFFFFF"/>

    <!-- Eye Highlight 2 -->
    <circle cx="52" cy="66" r="1" fill="#FFFFFF"/>

    <!-- Mouth - Simple Curve -->
    <path d="M25,70 C30,75 35,75 40,70" stroke="#000000" stroke-width="2" fill="none"/>

</svg>