<svg width="128" height="128" viewBox="0 0 128 128" xmlns="http://www.w3.org/2000/svg">
  <!-- Body -->
  <path d="M 30 70 C 20 50, 40 30, 70 30 C 100 30, 110 50, 100 70 C 90 90, 60 90, 30 70 Z" fill="#b0c4de"/>

  <!-- Tail Fin -->
  <path d="M 100 70 C 105 75, 110 70, 115 65 C 110 60, 105 55, 100 60 Z" fill="#a8d8e0"/>

  <!-- Dorsal Fin -->
  <path d="M 60 30 C 65 20, 75 20, 80 30 C 75 35, 65 35, 60 30 Z" fill="#a8d8e0"/>

  <!-- Pectoral Fin -->
  <path d="M 40 75 C 35 80, 40 85, 45 80 C 50 75, 45 70, 40 75 Z" fill="#a8d8e0"/>
  
  <!-- Anal Fin -->
  <path d="M 70 85 C 75 90, 80 90, 85 85 C 80 80, 75 80, 70 85 Z" fill="#a8d8e0"/>

  <!-- Spots -->
  <circle cx="50" cy="45" r="3" fill="#8090a0"/>
  <circle cx="65" cy="40" r="2" fill="#8090a0"/>
  <circle cx="75" cy="50" r="4" fill="#8090a0"/>
  <circle cx="60" cy="60" r="3" fill="#8090a0"/>
  <circle cx="85" cy="60" r="2" fill="#8090a0"/>

  <!-- Eye -->
  <circle cx="55" cy="48" r="8" fill="white"/>
  <circle cx="55" cy="48" r="5" fill="black"/>
  <circle cx="57" cy="46" r="2" fill="white"/>

  <!-- Mouth -->
  <path d="M 30 65 C 35 68, 35 62, 30 65 Z" fill="none" stroke="black" stroke-width="1.5"/>

  <!-- Whiskers -->
  <path d="M 30 65 Q 25 60, 20 65" fill="none" stroke="black" stroke-width="1.5"/>
  <path d="M 30 65 Q 25 70, 20 75" fill="none" stroke="black" stroke-width="1.5"/>
  <path d="M 30 68 Q 28 72, 23 72" fill="none" stroke="black" stroke-width="1.5"/>
</svg>