<svg width="128" height="128" viewBox="0 0 128 128" xmlns="http://www.w3.org/2000/svg">
  <defs>
    <linearGradient id="cdPrism" x1="0" y1="0" x2="1" y2="1">
      <stop offset="0%" stop-color="#E1BEE7"/>
      <stop offset="25%" stop-color="#B3E5FC"/>
      <stop offset="50%" stop-color="#C8E6C9"/>
      <stop offset="75%" stop-color="#FFF9C4"/>
      <stop offset="100%" stop-color="#FFCDD2"/>
    </linearGradient>
    <radialGradient id="cdGlow" cx="50%" cy="50%" r="60%">
      <stop offset="0%" stop-color="white" stop-opacity="0.4"/>
      <stop offset="100%" stop-color="white" stop-opacity="0"/>
    </radialGradient>
  </defs>
  <!-- Glow -->
  <ellipse cx="60" cy="64" rx="55" ry="45" fill="url(#cdGlow)"/>
  <!-- Crystalline body (faceted look) -->
  <polygon points="20,58 35,40 55,35 75,38 90,48 95,64 90,80 75,88 55,90 35,85 20,72" fill="url(#cdPrism)" stroke="white" stroke-width="1" opacity="0.85"/>
  <!-- Crystal facets -->
  <line x1="55" y1="35" x2="55" y2="90" stroke="white" stroke-width="0.5" opacity="0.5"/>
  <line x1="35" y1="40" x2="75" y2="88" stroke="white" stroke-width="0.5" opacity="0.5"/>
  <line x1="75" y1="38" x2="35" y2="85" stroke="white" stroke-width="0.5" opacity="0.5"/>
  <line x1="20" y1="58" x2="95" y2="64" stroke="white" stroke-width="0.5" opacity="0.5"/>
  <line x1="20" y1="72" x2="90" y2="48" stroke="white" stroke-width="0.5" opacity="0.4"/>
  <!-- Crystal spines (dorsal) -->
  <polygon points="40,40 38,22 44,24 42,38" fill="#B3E5FC" opacity="0.7"/>
  <polygon points="52,36 50,16 56,18 54,34" fill="#E1BEE7" opacity="0.7"/>
  <polygon points="64,38 62,20 68,22 66,36" fill="#C8E6C9" opacity="0.7"/>
  <polygon points="76,42 75,26 80,28 78,40" fill="#FFF9C4" opacity="0.7"/>
  <!-- Dragon horns -->
  <polygon points="25,52 18,38 22,36 28,48" fill="#CE93D8" opacity="0.8"/>
  <polygon points="30,46 24,30 28,28 34,42" fill="#B3E5FC" opacity="0.8"/>
  <!-- Tail crystal fan -->
  <polygon points="90,48 108,36 112,42 96,56" fill="#FFCDD2" opacity="0.7"/>
  <polygon points="95,64 115,64 112,70 96,68" fill="#B3E5FC" opacity="0.7"/>
  <polygon points="90,80 108,92 112,86 96,74" fill="#C8E6C9" opacity="0.7"/>
  <!-- Whiskers (crystalline) -->
  <line x1="20" y1="60" x2="6" y2="52" stroke="#CE93D8" stroke-width="1.5" opacity="0.6"/>
  <line x1="20" y1="66" x2="6" y2="70" stroke="#B3E5FC" stroke-width="1.5" opacity="0.6"/>
  <!-- Eye -->
  <circle cx="32" cy="56" r="8" fill="white"/>
  <circle cx="34" cy="58" r="5" fill="#7C4DFF"/>
  <circle cx="34" cy="58" r="3" fill="black"/>
  <circle cx="32" cy="55" r="2" fill="white"/>
  <circle cx="35" cy="57" r="1" fill="#E1BEE7"/>
</svg>