<svg width="128" height="128" viewBox="0 0 128 128" xmlns="http://www.w3.org/2000/svg">
  <defs>
    <radialGradient id="eeGlow" cx="50%" cy="50%" r="50%">
      <stop offset="0%" stop-color="#FFFF00" stop-opacity="0.3"/>
      <stop offset="100%" stop-color="#FFFF00" stop-opacity="0"/>
    </radialGradient>
  </defs>
  <!-- Electric glow aura -->
  <ellipse cx="64" cy="64" rx="60" ry="35" fill="url(#eeGlow)"/>
  <!-- Long serpentine body -->
  <path d="M8 58 C8 48 18 42 30 42 C50 42 55 48 70 50 C85 52 95 50 110 52 C118 54 122 58 122 64 C122 70 118 74 110 76 C95 78 85 76 70 74 C55 72 50 78 30 78 C18 78 8 72 8 58Z" fill="#556B2F"/>
  <!-- Belly lighter -->
  <path d="M10 64 C10 60 22 56 35 56 C55 56 60 60 75 62 C90 64 100 62 115 64 C120 66 120 70 115 72 C100 74 90 72 75 70 C60 68 55 72 35 72 C22 72 10 68 10 64Z" fill="#8B9862" opacity="0.6"/>
  <!-- Electric sparks -->
  <path d="M40 38 L44 30 L38 34 L42 26" stroke="#FFFF00" stroke-width="1.5" fill="none" opacity="0.7"/>
  <path d="M70 40 L74 32 L68 36 L72 28" stroke="#FFFF00" stroke-width="1.5" fill="none" opacity="0.7"/>
  <path d="M95 42 L99 34 L93 38 L97 30" stroke="#FFFF00" stroke-width="1.5" fill="none" opacity="0.7"/>
  <path d="M55 82 L59 90 L53 86 L57 94" stroke="#FFFF00" stroke-width="1.5" fill="none" opacity="0.6"/>
  <path d="M85 80 L89 88 L83 84 L87 92" stroke="#FFFF00" stroke-width="1.5" fill="none" opacity="0.6"/>
  <!-- Eye -->
  <circle cx="18" cy="56" r="7" fill="white"/>
  <circle cx="20" cy="57" r="4" fill="black"/>
  <circle cx="18" cy="55" r="2" fill="white"/>
  <circle cx="21" cy="56" r="1" fill="#FFFF00"/>
  <!-- Mouth -->
  <path d="M8 62 C10 64 10 64 8 66" stroke="#3E4A1E" stroke-width="1" fill="none"/>
</svg>