<svg width="128" height="128" viewBox="0 0 128 128" xmlns="http://www.w3.org/2000/svg">
  <!-- Body - oval pill-bug shape -->
  <ellipse cx="64" cy="64" rx="45" ry="28" fill="#78909C"/>
  <!-- Armored segments -->
  <path d="M25 64 L103 64" stroke="#546E7A" stroke-width="1" opacity="0.6"/>
  <ellipse cx="64" cy="64" rx="45" ry="28" fill="none" stroke="#546E7A" stroke-width="1.5"/>
  <path d="M30 52 C50 48 80 48 98 52" stroke="#546E7A" stroke-width="1.5" fill="none"/>
  <path d="M28 58 C48 54 82 54 100 58" stroke="#546E7A" stroke-width="1.5" fill="none"/>
  <path d="M28 70 C48 74 82 74 100 70" stroke="#546E7A" stroke-width="1.5" fill="none"/>
  <path d="M30 76 C50 80 80 80 98 76" stroke="#546E7A" stroke-width="1.5" fill="none"/>
  <!-- Head shield -->
  <path d="M20 52 C14 54 12 60 12 64 C12 68 14 74 20 76 L28 76 L28 52 Z" fill="#607D8B"/>
  <!-- Legs (cute small ones) -->
  <line x1="35" y1="88" x2="32" y2="98" stroke="#546E7A" stroke-width="2"/>
  <line x1="48" y1="90" x2="46" y2="100" stroke="#546E7A" stroke-width="2"/>
  <line x1="62" y1="91" x2="62" y2="102" stroke="#546E7A" stroke-width="2"/>
  <line x1="76" y1="90" x2="78" y2="100" stroke="#546E7A" stroke-width="2"/>
  <line x1="88" y1="88" x2="92" y2="98" stroke="#546E7A" stroke-width="2"/>
  <!-- Antennae -->
  <path d="M16 56 C10 50 6 44 2 40" stroke="#607D8B" stroke-width="1.5" fill="none"/>
  <path d="M16 60 C10 56 4 54 0 50" stroke="#607D8B" stroke-width="1.5" fill="none"/>
  <!-- Tail fan -->
  <path d="M104 56 L116 52 L118 64 L116 76 L104 72 Z" fill="#607D8B"/>
  <!-- Eyes - big cute compound eyes -->
  <circle cx="20" cy="58" r="7" fill="white"/>
  <circle cx="22" cy="59" r="4" fill="black"/>
  <circle cx="20" cy="57" r="2" fill="white"/>
  <circle cx="23" cy="58" r="1" fill="white"/>
</svg>