<svg width="128" height="128" viewBox="0 0 128 128" xmlns="http://www.w3.org/2000/svg">
  <!-- Long dramatic spines (dorsal) -->
  <line x1="35" y1="48" x2="25" y2="8" stroke="#C62828" stroke-width="1.5"/>
  <line x1="45" y1="46" x2="38" y2="6" stroke="#C62828" stroke-width="1.5"/>
  <line x1="55" y1="44" x2="52" y2="4" stroke="#C62828" stroke-width="1.5"/>
  <line x1="65" y1="46" x2="65" y2="6" stroke="#C62828" stroke-width="1.5"/>
  <line x1="75" y1="48" x2="78" y2="10" stroke="#C62828" stroke-width="1.5"/>
  <!-- Spine membranes -->
  <path d="M25 8 L38 6 L35 48 L25 48 Z" fill="#EF9A9A" opacity="0.3"/>
  <path d="M38 6 L52 4 L55 44 L35 48 Z" fill="#EF9A9A" opacity="0.3"/>
  <path d="M52 4 L65 6 L65 46 L55 44 Z" fill="#EF9A9A" opacity="0.3"/>
  <path d="M65 6 L78 10 L75 48 L65 46 Z" fill="#EF9A9A" opacity="0.3"/>
  <!-- Body -->
  <ellipse cx="55" cy="65" rx="32" ry="22" fill="#FFEBEE"/>
  <!-- Red stripes -->
  <path d="M28 55 L30 78" stroke="#C62828" stroke-width="3" stroke-linecap="round"/>
  <path d="M38 50 L40 82" stroke="#C62828" stroke-width="3" stroke-linecap="round"/>
  <path d="M50 48 L52 84" stroke="#C62828" stroke-width="3" stroke-linecap="round"/>
  <path d="M62 48 L64 84" stroke="#C62828" stroke-width="3" stroke-linecap="round"/>
  <path d="M74 50 L76 82" stroke="#C62828" stroke-width="3" stroke-linecap="round"/>
  <!-- Fan pectoral fins -->
  <path d="M35 72 C28 80 20 95 15 105 C25 100 32 90 38 80" fill="#EF9A9A" opacity="0.6"/>
  <line x1="35" y1="72" x2="15" y2="105" stroke="#C62828" stroke-width="0.8"/>
  <line x1="35" y1="72" x2="20" y2="98" stroke="#C62828" stroke-width="0.8"/>
  <line x1="35" y1="72" x2="26" y2="92" stroke="#C62828" stroke-width="0.8"/>
  <!-- Tail fin -->
  <path d="M84 58 L100 50 L98 65 L100 80 L84 72 Z" fill="#FFCDD2"/>
  <line x1="84" y1="58" x2="100" y2="50" stroke="#C62828" stroke-width="0.8"/>
  <line x1="84" y1="65" x2="98" y2="65" stroke="#C62828" stroke-width="0.8"/>
  <line x1="84" y1="72" x2="100" y2="80" stroke="#C62828" stroke-width="0.8"/>
  <!-- Eye -->
  <circle cx="36" cy="60" r="8" fill="white"/>
  <circle cx="39" cy="62" r="5" fill="black"/>
  <circle cx="37" cy="59" r="2" fill="white"/>
  <circle cx="40" cy="61" r="1" fill="white"/>
</svg>