<svg width="128" height="128" viewBox="0 0 128 128" xmlns="http://www.w3.org/2000/svg">
  <defs>
    <radialGradient id="mjGlow" cx="50%" cy="30%" r="60%">
      <stop offset="0%" stop-color="#E1F5FE" stop-opacity="0.9"/>
      <stop offset="100%" stop-color="#B3E5FC" stop-opacity="0.3"/>
    </radialGradient>
  </defs>
  <!-- Bell (dome) -->
  <path d="M24 58 C24 28 44 14 64 14 C84 14 104 28 104 58 L24 58Z" fill="url(#mjGlow)" stroke="#B3E5FC" stroke-width="1"/>
  <!-- Bell edge ruffle -->
  <path d="M24 58 C30 62 36 56 42 60 C48 64 54 56 60 60 C66 64 72 56 78 60 C84 64 90 56 96 60 C100 62 104 58 104 58" fill="none" stroke="#81D4FA" stroke-width="2"/>
  <!-- Internal organs (four-leaf clover pattern) -->
  <circle cx="52" cy="38" r="8" fill="#CE93D8" opacity="0.4"/>
  <circle cx="76" cy="38" r="8" fill="#CE93D8" opacity="0.4"/>
  <circle cx="52" cy="50" r="8" fill="#CE93D8" opacity="0.4"/>
  <circle cx="76" cy="50" r="8" fill="#CE93D8" opacity="0.4"/>
  <!-- Tentacles -->
  <path d="M32 60 C30 72 28 84 30 96 C32 102 34 108 32 114" stroke="#B3E5FC" stroke-width="1.5" fill="none" opacity="0.6"/>
  <path d="M44 62 C42 76 44 88 42 100 C40 108 42 114 40 120" stroke="#B3E5FC" stroke-width="1.5" fill="none" opacity="0.6"/>
  <path d="M56 62 C58 78 56 90 58 104 C60 110 58 116 60 122" stroke="#B3E5FC" stroke-width="1.5" fill="none" opacity="0.5"/>
  <path d="M68 62 C66 78 68 90 66 104 C64 110 66 116 64 122" stroke="#B3E5FC" stroke-width="1.5" fill="none" opacity="0.5"/>
  <path d="M80 62 C82 76 80 88 82 100 C84 108 82 114 84 120" stroke="#B3E5FC" stroke-width="1.5" fill="none" opacity="0.6"/>
  <path d="M92 60 C94 72 96 84 94 96 C92 102 90 108 92 114" stroke="#B3E5FC" stroke-width="1.5" fill="none" opacity="0.6"/>
  <!-- Cute face (kawaii eyes on the bell) -->
  <circle cx="52" cy="34" r="6" fill="white" opacity="0.9"/>
  <circle cx="54" cy="35" r="3.5" fill="black"/>
  <circle cx="52" cy="33" r="1.5" fill="white"/>
  <circle cx="76" cy="34" r="6" fill="white" opacity="0.9"/>
  <circle cx="78" cy="35" r="3.5" fill="black"/>
  <circle cx="76" cy="33" r="1.5" fill="white"/>
  <!-- Cute smile -->
  <path d="M58 42 C60 44 68 44 70 42" stroke="#90CAF9" stroke-width="1.5" fill="none"/>
</svg>