<svg width="128" height="128" viewBox="0 0 128 128" xmlns="http://www.w3.org/2000/svg">
  <!-- Body -->
  <ellipse cx="58" cy="66" rx="42" ry="28" fill="#00796B"/>
  <!-- Forehead bump - distinctive -->
  <path d="M22 50 C18 38 22 28 32 26 C40 24 42 32 40 42 C38 48 30 52 22 50Z" fill="#00897B"/>
  <!-- Scale pattern -->
  <ellipse cx="45" cy="58" rx="6" ry="4" fill="#26A69A" opacity="0.4"/>
  <ellipse cx="58" cy="55" rx="6" ry="4" fill="#26A69A" opacity="0.4"/>
  <ellipse cx="72" cy="58" rx="6" ry="4" fill="#26A69A" opacity="0.4"/>
  <ellipse cx="52" cy="70" rx="6" ry="4" fill="#26A69A" opacity="0.4"/>
  <ellipse cx="65" cy="68" rx="6" ry="4" fill="#26A69A" opacity="0.4"/>
  <ellipse cx="80" cy="64" rx="5" ry="3" fill="#26A69A" opacity="0.4"/>
  <!-- Belly -->
  <ellipse cx="55" cy="78" rx="30" ry="12" fill="#4DB6AC" opacity="0.5"/>
  <!-- Dorsal fin -->
  <path d="M40 40 C50 30 65 28 75 38" fill="#00695C" opacity="0.8"/>
  <!-- Tail fin -->
  <path d="M96 58 L114 48 L112 66 L114 84 L96 74 Z" fill="#00695C"/>
  <!-- Pectoral fin -->
  <path d="M38 80 L30 94 L46 88 Z" fill="#00897B" opacity="0.7"/>
  <!-- Thick lips -->
  <path d="M18 62 C16 60 14 62 14 66 C14 70 16 72 18 70 Z" fill="#E8967A"/>
  <!-- Eye -->
  <circle cx="30" cy="50" r="8" fill="white"/>
  <circle cx="33" cy="52" r="5" fill="black"/>
  <circle cx="31" cy="49" r="2" fill="white"/>
  <circle cx="34" cy="51" r="1" fill="white"/>
  <!-- Eye line markings -->
  <path d="M24 46 L22 42" stroke="#004D40" stroke-width="1.5" fill="none"/>
  <path d="M24 56 L22 60" stroke="#004D40" stroke-width="1.5" fill="none"/>
</svg>