<svg width="128" height="128" viewBox="0 0 128 128" xmlns="http://www.w3.org/2000/svg">
  <defs>
    <linearGradient id="phBody" x1="0" y1="0" x2="1" y2="1">
      <stop offset="0%" stop-color="#FFD600"/>
      <stop offset="50%" stop-color="#FF6D00"/>
      <stop offset="100%" stop-color="#D50000"/>
    </linearGradient>
    <radialGradient id="phGlow" cx="50%" cy="50%" r="60%">
      <stop offset="0%" stop-color="#FFD600" stop-opacity="0.3"/>
      <stop offset="100%" stop-color="#FF6D00" stop-opacity="0"/>
    </radialGradient>
  </defs>
  <!-- Fire glow -->
  <ellipse cx="58" cy="64" rx="55" ry="45" fill="url(#phGlow)"/>
  <!-- Body -->
  <ellipse cx="55" cy="64" rx="35" ry="22" fill="url(#phBody)"/>
  <!-- Flame dorsal fin -->
  <path d="M35 44 C32 30 38 18 42 14 C44 22 48 16 50 10 C52 20 56 14 58 8 C58 18 62 22 60 34" fill="#FF6D00" opacity="0.8"/>
  <path d="M38 40 C36 28 42 22 44 18 C46 26 50 22 52 18 C52 28 55 24 56 36" fill="#FFD600" opacity="0.6"/>
  <!-- Flame tail fins -->
  <path d="M88 52 C95 42 105 30 110 24 C108 38 115 32 118 26 C115 40 120 36 122 32 C118 48 112 56 105 60" fill="#D50000" opacity="0.8"/>
  <path d="M88 76 C95 86 105 98 110 104 C108 90 115 96 118 102 C115 88 120 92 122 96 C118 80 112 72 105 68" fill="#D50000" opacity="0.8"/>
  <path d="M92 56 C100 48 108 38 112 32 C110 44 106 52 100 58" fill="#FF6D00" opacity="0.6"/>
  <path d="M92 72 C100 80 108 90 112 96 C110 84 106 76 100 70" fill="#FF6D00" opacity="0.6"/>
  <!-- Pectoral flame fin -->
  <path d="M38 78 C32 86 28 96 26 102 C30 94 34 90 38 84" fill="#FF6D00" opacity="0.7"/>
  <!-- Eye -->
  <circle cx="36" cy="58" r="8" fill="white"/>
  <circle cx="39" cy="60" r="5" fill="#D50000"/>
  <circle cx="39" cy="60" r="3" fill="black"/>
  <circle cx="37" cy="57" r="2" fill="white"/>
  <circle cx="40" cy="59" r="1" fill="#FFD600"/>
</svg>