<svg width="128" height="128" viewBox="0 0 128 128" xmlns="http://www.w3.org/2000/svg">
  <!-- Body -->
  <ellipse cx="58" cy="64" rx="35" ry="28" fill="#90A4AE"/>
  <!-- Red belly -->
  <path d="M30 68 C35 80 50 90 65 90 C78 90 88 82 90 72 C80 80 60 84 40 78 C34 76 30 72 30 68Z" fill="#E53935"/>
  <!-- Silver highlight -->
  <ellipse cx="52" cy="55" rx="20" ry="12" fill="#CFD8DC" opacity="0.5"/>
  <!-- Dorsal fin -->
  <path d="M50 38 L55 26 L64 36 Z" fill="#78909C"/>
  <!-- Anal fin -->
  <path d="M55 90 L60 100 L68 90 Z" fill="#C62828"/>
  <!-- Tail fin -->
  <path d="M90 56 L108 46 L106 64 L108 82 L90 72 Z" fill="#78909C"/>
  <!-- Pectoral fin -->
  <path d="M40 74 L34 84 L46 80 Z" fill="#90A4AE" opacity="0.7"/>
  <!-- Mouth with teeth -->
  <path d="M24 60 L24 72" stroke="#455A64" stroke-width="1.5"/>
  <!-- Sharp teeth -->
  <path d="M24 60 L26 63 L28 60 L30 63 L32 60" fill="white"/>
  <path d="M24 72 L26 69 L28 72 L30 69 L32 72" fill="white"/>
  <!-- Eye - fierce but cute -->
  <circle cx="36" cy="56" r="9" fill="white"/>
  <circle cx="39" cy="58" r="5" fill="#D32F2F"/>
  <circle cx="39" cy="58" r="3" fill="black"/>
  <circle cx="37" cy="55" r="2" fill="white"/>
  <circle cx="40" cy="57" r="1" fill="white"/>
  <!-- Angry eyebrow -->
  <path d="M28 48 L42 52" stroke="#455A64" stroke-width="2" stroke-linecap="round"/>
</svg>