<svg width="128" height="128" viewBox="0 0 128 128" fill="none" xmlns="http://www.w3.org/2000/svg">
<g id="pufferfish">
    <!-- Body -->
    <ellipse cx="64" cy="64" rx="45" ry="35" fill="#FFDDC1"/>

    <!-- Spikes/Spots -->
    <circle cx="35" cy="45" r="4" fill="#FFA07A"/>
    <circle cx="50" cy="35" r="4" fill="#FFA07A"/>
    <circle cx="70" cy="30" r="4" fill="#FFA07A"/>
    <circle cx="85" cy="40" r="4" fill="#FFA07A"/>
    <circle cx="95" cy="55" r="4" fill="#FFA07A"/>
    <circle cx="90" cy="70" r="4" fill="#FFA07A"/>
    <circle cx="75" cy="85" r="4" fill="#FFA07A"/>
    <circle cx="55" cy="90" r="4" fill="#FFA07A"/>
    <circle cx="40" cy="78" r="4" fill="#FFA07A"/>

    <!-- Tail Fin -->
    <path d="M109 64 C115 58, 120 60, 115 70 C110 75, 109 64, 109 64 Z" fill="#FFA07A"/>

    <!-- Top Fin -->
    <path d="M70 30 C75 20, 80 25, 75 35 L70 30 Z" fill="#FFA07A"/>

    <!-- Bottom Fin -->
    <path d="M70 95 C75 105, 80 100, 75 90 L70 95 Z" fill="#FFA07A"/>


    <!-- Right Eye (larger) -->
    <circle cx="75" cy="55" r="10" fill="white"/>
    <circle cx="78" cy="57" r="7" fill="black"/>
    <circle cx="80" cy="53" r="3" fill="white"/> <!-- Highlight -->

    <!-- Left Eye (partially hidden) -->
    <circle cx="58" cy="55" r="8" fill="white"/>
    <circle cx="60" cy="57" r="5" fill="black"/>
    <circle cx="62" cy="53" r="2" fill="white"/> <!-- Highlight -->

    <!-- Mouth -->
    <path d="M68 75 C70 78, 75 78, 77 75 C75 73, 70 73, 68 75 Z" fill="#8B4513"/>
</g>
</svg>