<svg width="128" height="128" viewBox="0 0 128 128" xmlns="http://www.w3.org/2000/svg">
  <defs>
    <radialGradient id="seahorseGradient" cx="50%" cy="50%" r="50%" fx="50%" fy="50%">
      <stop offset="0%" style="stop-color:#FFD700;stop-opacity:1" />
      <stop offset="100%" style="stop-color:#FFA500;stop-opacity:1" />
    </radialGradient>
  </defs>

  <!-- Body -->
  <path d="M60 20 C40 5 30 30 30 50 C30 70 50 80 60 85 C70 90 90 90 90 70 C90 50 70 30 60 20 Z" fill="url(#seahorseGradient)" stroke="#FF8C00" stroke-width="2"/>

  <!-- Snout -->
  <path d="M60 20 C75 10 90 10 95 20 C100 30 85 40 70 30 Z" fill="url(#seahorseGradient)" stroke="#FF8C00" stroke-width="2"/>

  <!-- Tail -->
  <path d="M60 85 C40 100 30 110 40 120 C50 130 70 110 60 95 Z" fill="url(#seahorseGradient)" stroke="#FF8C00" stroke-width="2"/>
  <path d="M40 120 C30 115 20 110 30 100 C40 90 50 100 40 105 Z" fill="url(#seahorseGradient)" stroke="#FF8C00" stroke-width="2"/>


  <!-- Fin (back) -->
  <path d="M90 70 C100 60 105 50 95 45 C85 40 80 50 90 60 Z" fill="#FF8C00" opacity="0.7"/>

  <!-- Eye 1 (left) -->
  <circle cx="80" cy="30" r="8" fill="white"/>
  <circle cx="82" cy="32" r="3" fill="black"/>
  <circle cx="83" cy="29" r="1.5" fill="white"/>

</svg>