<svg width="128" height="128" viewBox="0 0 128 128" xmlns="http://www.w3.org/2000/svg">
  <!-- Body - bright blue -->
  <ellipse cx="55" cy="64" rx="38" ry="26" fill="#1565C0"/>
  <!-- Dark pattern stripe -->
  <path d="M40 50 C50 42 65 42 80 50 C85 55 88 60 88 64 C88 68 85 74 80 78 C65 86 50 86 40 78 L55 64 Z" fill="#0D47A1" opacity="0.5"/>
  <!-- Yellow tail -->
  <path d="M90 54 L110 42 L108 64 L110 86 L90 74 Z" fill="#FFD600"/>
  <!-- Dorsal fin -->
  <path d="M40 40 C45 30 55 28 60 38" fill="#1976D2"/>
  <!-- Anal fin -->
  <path d="M45 88 C50 96 58 98 62 90" fill="#1976D2"/>
  <!-- Pectoral fin -->
  <path d="M38 72 L32 82 L44 78 Z" fill="#1976D2" opacity="0.7"/>
  <!-- Black tail base marking -->
  <path d="M86 56 L92 56 L92 72 L86 72 Z" fill="#0D47A1"/>
  <!-- Eye -->
  <circle cx="34" cy="58" r="9" fill="white"/>
  <circle cx="37" cy="60" r="5" fill="black"/>
  <circle cx="35" cy="57" r="2.5" fill="white"/>
  <circle cx="38" cy="59" r="1" fill="white"/>
  <!-- Mouth -->
  <path d="M18 66 C20 68 20 68 18 70" stroke="#0D47A1" stroke-width="1" fill="none"/>
</svg>