<svg width="128" height="128" viewBox="0 0 128 128" xmlns="http://www.w3.org/2000/svg">
  <defs>
    <radialGradient id="vsBody" cx="40%" cy="40%" r="60%">
      <stop offset="0%" stop-color="#FF8A65"/>
      <stop offset="100%" stop-color="#E64A19"/>
    </radialGradient>
  </defs>
  <!-- Mantle (round flat body) -->
  <ellipse cx="64" cy="50" rx="36" ry="28" fill="url(#vsBody)"/>
  <!-- Ear-like fins -->
  <ellipse cx="35" cy="35" rx="12" ry="8" transform="rotate(-30 35 35)" fill="#FF7043"/>
  <ellipse cx="93" cy="35" rx="12" ry="8" transform="rotate(30 93 35)" fill="#FF7043"/>
  <!-- Tentacles (cute short webbed ones) -->
  <path d="M35 72 C30 85 28 98 32 105 C36 108 38 100 40 90 L44 75 Z" fill="#E64A19"/>
  <path d="M44 75 C42 88 42 100 46 106 C50 108 50 98 50 88 L52 76 Z" fill="#EF6C00"/>
  <path d="M52 76 C52 90 54 102 58 106 C62 108 62 98 62 88 L62 78 Z" fill="#E64A19"/>
  <path d="M62 78 C64 92 66 102 70 106 C74 108 74 98 72 88 L70 76 Z" fill="#EF6C00"/>
  <path d="M70 76 C72 88 74 100 78 106 C82 108 82 98 80 88 L78 75 Z" fill="#E64A19"/>
  <path d="M78 75 C82 86 86 96 88 102 C92 104 90 96 88 86 L84 74 Z" fill="#EF6C00"/>
  <path d="M84 74 C90 84 94 92 96 98 C98 100 98 92 96 84 L90 72 Z" fill="#E64A19"/>
  <!-- Web between tentacles -->
  <path d="M35 72 L44 75 L52 76 L62 78 L70 76 L78 75 L84 74 L90 72 C88 80 82 84 64 86 C46 84 38 80 35 72Z" fill="#FF7043" opacity="0.5"/>
  <!-- Big cute eyes -->
  <circle cx="50" cy="48" r="10" fill="white"/>
  <circle cx="53" cy="50" r="6" fill="black"/>
  <circle cx="50" cy="46" r="3" fill="white"/>
  <circle cx="54" cy="49" r="1.5" fill="white"/>
  <circle cx="78" cy="48" r="10" fill="white"/>
  <circle cx="81" cy="50" r="6" fill="black"/>
  <circle cx="78" cy="46" r="3" fill="white"/>
  <circle cx="82" cy="49" r="1.5" fill="white"/>
  <!-- Cute small mouth -->
  <path d="M60 60 C62 62 66 62 68 60" stroke="#BF360C" stroke-width="1.5" fill="none"/>
</svg>