<svg width="128" height="128" viewBox="0 0 128 128" xmlns="http://www.w3.org/2000/svg">
  <!-- Elongated body -->
  <path d="M20 55 C20 42 40 35 65 38 C85 40 105 48 110 58 C112 64 112 72 110 78 C105 88 85 90 65 88 C40 86 20 75 20 55Z" fill="#1A1A2E"/>
  <!-- Bioluminescent spots along body -->
  <circle cx="40" cy="55" r="2" fill="#00E5FF" opacity="0.8"/>
  <circle cx="55" cy="50" r="1.5" fill="#00E5FF" opacity="0.8"/>
  <circle cx="70" cy="52" r="2" fill="#00E5FF" opacity="0.8"/>
  <circle cx="85" cy="56" r="1.5" fill="#00E5FF" opacity="0.8"/>
  <circle cx="48" cy="75" r="1.5" fill="#00E5FF" opacity="0.6"/>
  <circle cx="65" cy="78" r="2" fill="#00E5FF" opacity="0.6"/>
  <circle cx="82" cy="74" r="1.5" fill="#00E5FF" opacity="0.6"/>
  <circle cx="95" cy="64" r="1.5" fill="#00E5FF" opacity="0.7"/>
  <!-- Big open mouth -->
  <path d="M20 52 L12 48 L12 78 L20 74 Z" fill="#0D0D1A"/>
  <!-- Huge curved fangs -->
  <path d="M15 52 C16 42 18 36 20 34" stroke="white" stroke-width="2" fill="none" stroke-linecap="round"/>
  <path d="M18 52 C20 44 22 40 24 38" stroke="white" stroke-width="1.5" fill="none" stroke-linecap="round"/>
  <path d="M15 74 C16 84 18 90 20 92" stroke="white" stroke-width="2" fill="none" stroke-linecap="round"/>
  <path d="M18 74 C20 82 22 86 24 88" stroke="white" stroke-width="1.5" fill="none" stroke-linecap="round"/>
  <!-- Dorsal fin with light organ -->
  <path d="M50 38 L48 26 L55 36 Z" fill="#2D2D44"/>
  <circle cx="48" cy="26" r="3" fill="#00E5FF" opacity="0.8"/>
  <!-- Tail fin -->
  <path d="M108 58 L120 50 L118 66 L120 82 L108 74 Z" fill="#1A1A2E"/>
  <!-- Eye - large -->
  <circle cx="30" cy="56" r="8" fill="white"/>
  <circle cx="33" cy="58" r="5" fill="#1A1A2E"/>
  <circle cx="34" cy="57" r="2" fill="#00E5FF"/>
  <circle cx="31" cy="55" r="2" fill="white"/>
</svg>