<svg width="128" height="128" viewBox="0 0 128 128" xmlns="http://www.w3.org/2000/svg">
  <defs>
    <linearGradient id="wsBody" x1="0" y1="0" x2="1" y2="0">
      <stop offset="0%" stop-color="#1B5E20"/>
      <stop offset="100%" stop-color="#2E7D32"/>
    </linearGradient>
  </defs>
  <!-- Serpentine coiling body -->
  <path d="M10 52 C10 38 22 30 38 30 C55 30 60 42 65 52 C70 60 80 58 90 52 C100 46 110 48 118 56 C124 62 122 72 115 78 C108 84 98 82 88 76 C78 70 68 72 58 80 C48 88 35 90 22 84 C12 78 10 68 10 52Z" fill="url(#wsBody)"/>
  <!-- Belly scales -->
  <path d="M14 58 C14 50 26 42 42 42 C54 42 58 50 64 58 C56 62 48 58 40 54 C30 50 20 52 14 58Z" fill="#388E3C" opacity="0.5"/>
  <!-- Glowing runes on body -->
  <circle cx="30" cy="48" r="2.5" fill="#69F0AE" opacity="0.8"/>
  <path d="M28 48 L32 48 M30 46 L30 50" stroke="#69F0AE" stroke-width="1" opacity="0.8"/>
  <circle cx="50" cy="42" r="2.5" fill="#69F0AE" opacity="0.7"/>
  <path d="M48 40 L52 44 M52 40 L48 44" stroke="#69F0AE" stroke-width="1" opacity="0.7"/>
  <circle cx="75" cy="56" r="2.5" fill="#69F0AE" opacity="0.8"/>
  <path d="M73 54 L77 58 M73 58 L77 54" stroke="#69F0AE" stroke-width="1" opacity="0.8"/>
  <circle cx="100" cy="52" r="2.5" fill="#69F0AE" opacity="0.7"/>
  <path d="M98 52 L102 52 M100 50 L100 54" stroke="#69F0AE" stroke-width="1" opacity="0.7"/>
  <circle cx="55" cy="80" r="2.5" fill="#69F0AE" opacity="0.6"/>
  <path d="M53 78 L57 82 M57 78 L53 82" stroke="#69F0AE" stroke-width="1" opacity="0.6"/>
  <!-- Horns/crown -->
  <path d="M14 44 L8 30 L16 36 Z" fill="#1B5E20"/>
  <path d="M22 38 L18 22 L26 30 Z" fill="#1B5E20"/>
  <!-- Dorsal spines -->
  <path d="M38 30 L40 22 L43 30" fill="#2E7D32"/>
  <path d="M48 32 L50 24 L53 32" fill="#2E7D32"/>
  <path d="M90 50 L92 42 L95 50" fill="#2E7D32"/>
  <path d="M108 52 L110 44 L113 54" fill="#2E7D32"/>
  <!-- Tail tip -->
  <path d="M118 56 L126 50 L128 58" fill="#1B5E20"/>
  <path d="M118 74 L126 80 L128 72" fill="#1B5E20"/>
  <!-- Glowing eye -->
  <circle cx="16" cy="50" r="7" fill="white"/>
  <circle cx="18" cy="51" r="4" fill="#69F0AE"/>
  <circle cx="18" cy="51" r="2.5" fill="black"/>
  <circle cx="16" cy="49" r="2" fill="white"/>
  <circle cx="19" cy="50" r="1" fill="#69F0AE"/>
  <!-- Mouth with fangs -->
  <path d="M10 56 L6 54 L6 60 L10 58" fill="#0D3311"/>
  <path d="M7 54 L8 58" stroke="white" stroke-width="1.5" stroke-linecap="round"/>
  <path d="M9 54 L9.5 57" stroke="white" stroke-width="1" stroke-linecap="round"/>
</svg>